PathFileType	4	(X/Y/Z)	12_2_77_p1_0-710_filt_butterworth.trc
DataRate	CameraRate	NumFrames	NumMarkers	Units	OrigDataRate	OrigDataStartFrame	OrigNumFrames
60.0	60.0	7	27	m	60.0	0	710
Frame#	Time	RHip			RKnee			RAnkle			RBigToe			RSmallToe			RHeel			LHip			LKnee			LAnkle			LBigToe			LSmallToe			LHeel			Neck			Head			Nose			RShoulder			RElbow			RWrist			RThumb			RIndex			RPinky			LShoulder			LElbow			LWrist			LThumb			LIndex			LPinky			
		X1	Y1	Z1	X2	Y2	Z2	X3	Y3	Z3	X4	Y4	Z4	X5	Y5	Z5	X6	Y6	Z6	X7	Y7	Z7	X8	Y8	Z8	X9	Y9	Z9	X10	Y10	Z10	X11	Y11	Z11	X12	Y12	Z12	X13	Y13	Z13	X14	Y14	Z14	X15	Y15	Z15	X16	Y16	Z16	X17	Y17	Z17	X18	Y18	Z18	X19	Y19	Z19	X20	Y20	Z20	X21	Y21	Z21	X22	Y22	Z22	X23	Y23	Z23	X24	Y24	Z24	X25	Y25	Z25	X26	Y26	Z26	X27	Y27	Z27	
0	0.0	0.43142612580342565	0.9898273751464546	0.4625110534845575	0.4783137797495369	0.5479820349050647	0.5182029940062862	0.4888066658798307	0.132861061009384	0.6052635242918724	0.47373449369725124	0.11843740786534517	0.3706369961403625	0.5279809314587968	0.13401350290263947	0.40473045660714546	0.47147566087139303	0.05907806743642233	0.6641974653949425	0.2071806416683887	0.9461588731769907	0.4719368390946925	0.2516988219307193	0.5097468525750817	0.5089167524020548	0.3104109811760989	0.1221034737509671	0.5711742509024745	0.32158842598610643	0.09957556086785693	0.38718252975191847	0.25970312924022654	0.10248815953411924	0.4256213114091053	0.3325628607405813	0.06848486583112771	0.6298314730006813	0.24357261321213133	1.629109489338096	0.4560384111787079	0.2218626007990343	1.8857938164677364	0.38991662705610985	0.24481931570584284	1.7540713412245423	0.3339168204679268	0.43758837632244885	1.5289842299348544	0.45837766140379843	0.4952840404870193	1.247313632975443	0.43006724818730285	0.39194686939932216	1.0462413276086797	0.26350099817129835	0.33879860362599323	0.982197727884095	0.2576424076507087	0.32439795177533765	0.939502204032912	0.2774583584369946	0.3144168239877613	0.9319837399463736	0.29839084339361743	0.09590055585136104	1.5052545176691623	0.47607023117545144	0.07739993415106307	1.2165067111072767	0.41432171984980903	0.27224204331462737	1.0349177040829767	0.2968428617766762	0.37296432493527004	1.011116602950661	0.2498322469917144	0.386112408882688	0.9582699866811666	0.26025550504254374	0.34097308093353607	0.9246308603753858	0.2956269420436618	
1	0.0166666666666666	0.43203306164114463	0.9909786487504858	0.46009776041819567	0.47732792838738847	0.5487828163104249	0.5175767329159279	0.48881382690703684	0.13292561777322853	0.6052860244431854	0.4735106028622324	0.12260876598422732	0.3697881174654686	0.5287026115327734	0.13154389883526077	0.40501566479277423	0.47237862016773	0.057010314223473905	0.6646775089317132	0.20717764859286605	0.9456819076883426	0.47184246501921007	0.25149351916220725	0.5096745445928323	0.5085496530481994	0.31074493829169986	0.12009329183098902	0.5737178834962726	0.324353543153279	0.097568994050281	0.38793074302217645	0.2597747755651533	0.10246555234643664	0.4257706863952617	0.3322658434122544	0.06923130581691316	0.6282712429962272	0.24357196236616774	1.6290474674796425	0.4560642308162072	0.2226378721327888	1.885811920022449	0.3874592381983146	0.24497889907168235	1.754073415361157	0.3345223435429762	0.4375450350938042	1.5290003383398667	0.45847619143592144	0.49479770088503483	1.250075613219706	0.42931306937707464	0.39115670326243607	1.0461824299667783	0.2630793555818497	0.33760254022893094	0.9773529838357732	0.2604416862557823	0.3248193412690344	0.9395717083956039	0.27762287204299596	0.3141906760142096	0.9319220975029925	0.29819321819197936	0.09596294778317681	1.5053449091851057	0.4759631937876314	0.07758485435907357	1.215942431312949	0.41406387725508736	0.27242106115758413	1.0341787708424732	0.2971021900851493	0.3727072742925113	1.0073135241418285	0.24930861270935017	0.38631147027086643	0.9562474105197586	0.25989759654759065	0.34318668370956357	0.9243742798327059	0.29708860398065606	
2	0.0333333333333333	0.43254167316401365	0.9919517692413201	0.4580690117351209	0.4766236904881477	0.5495028906924506	0.5170891367269512	0.48885513919944196	0.13301592788200536	0.6052534027503682	0.47329353558620546	0.12553912266576014	0.3691497019837407	0.5290006670935055	0.13022128792793505	0.4047161681637573	0.4730661230226207	0.0553306270802435	0.6650503471988415	0.20718199389554562	0.9453366629193946	0.47175528350180396	0.25133637572215284	0.5096786832089809	0.5082308633035608	0.31103853051859726	0.11851041830178391	0.5758486098424168	0.3261501536006683	0.09619425772912733	0.3883462426889135	0.2598280251749331	0.10244841228603083	0.4258462890057443	0.33209583058933095	0.06974684116651977	0.6272669775486105	0.24356990217107732	1.6290085538428876	0.45606682905093077	0.2228883954192873	1.8858275225123093	0.3866917589384181	0.24502030731000887	1.754075928545125	0.33468087447055805	0.4375172425568965	1.5290096124931503	0.4585520401416176	0.4944785262349076	1.2520442239298375	0.42882766405932515	0.39088183516394515	1.0461447329709492	0.2629414609328278	0.3370176333535944	0.9747686297994598	0.26178814031802067	0.325459881601923	0.9396377968607671	0.27786351335754456	0.31405916204917644	0.9318934645651059	0.2980689083522873	0.09599821020893862	1.5053966275030386	0.47587321390490833	0.0776440424438332	1.2158583974040758	0.41398276385701505	0.27249533589503383	1.033898235059339	0.2971984231817517	0.3726808688177656	1.004922530350184	0.24896249391663489	0.38644656623650225	0.9549868655879734	0.25963485419941695	0.34459762495057134	0.924225897620322	0.2979936797187164	
3	0.05	0.43295949288009533	0.9927616255566831	0.45639552159607233	0.4761729137402188	0.5501463041508211	0.5167274514570974	0.4889263667363026	0.13312855589921876	0.605172287577535	0.4730950652698987	0.12741894566493792	0.3686976236902668	0.5289566723687535	0.12982604766641476	0.4039461614793028	0.47355808657158927	0.05400849640249682	0.6653253941263004	0.2071927707930256	0.9451127767262778	0.4716749639012682	0.25122305690174696	0.5097522106833359	0.5079570885729422	0.3112942337212875	0.1173185429970725	0.5775978066677933	0.3271585105340213	0.0953466151557498	0.3884984564237972	0.2598652512532183	0.10243770810104127	0.4258648645755168	0.33204073063827083	0.07005100611473253	0.626766666518265	0.24356693582918587	1.6289882761442767	0.45605292362675925	0.2227474618861045	1.8858449609982868	0.3871930332888731	0.24498258831486444	1.7540789758954962	0.33453763014299537	0.4375021820046982	1.5290130694564597	0.4586075375753453	0.4942955649877035	1.2533459906750297	0.4285615088861694	0.3909963505304524	1.0461268559616292	0.26301193864475125	0.3369146450496976	0.9739400823255153	0.2620692183675612	0.32623617252248044	0.9396996630424472	0.2781493730689616	0.3140033676460381	0.9318922495452874	0.2980011777416206	0.09601200209639536	1.5054173837879992	0.47580055437744667	0.07761256611988228	1.2160847374851191	0.41403057401706517	0.2724907869423398	1.0339614687258274	0.2971718960472093	0.3728238820221901	1.0036615906013324	0.24876379377421978	0.3865295451964779	0.9543383210207547	0.2594550157062802	0.3453591638359831	0.9241609180100469	0.298454974301043	
4	0.0666666666666666	0.43329405329745246	0.9934231066343002	0.4550480041617893	0.4759474458320059	0.5507171027852154	0.5164789231241078	0.4890232734968752	0.1332600663883733	0.6050493072888007	0.4729269653140403	0.12843870273675514	0.368407756580135	0.5286522015862789	0.1301385555364528	0.4028198394986191	0.4738744279501598	0.05301341258599867	0.6655120636440627	0.20720907250190423	0.9449998869651239	0.47160117557639614	0.25114922799218037	0.5098880692757065	0.5077250342611462	0.31151452376426686	0.11648135575057575	0.5789968506992879	0.3275588671590851	0.09492132958150315	0.38845681189849524	0.25988882698366145	0.10243440853960672	0.42584315843954307	0.3320884519255341	0.07016333489633504	0.6267182997656241	0.24356356654281905	1.6289821621002543	0.4560292322875731	0.2223483627608151	1.8858685725413524	0.3885419052621331	0.24490478998029097	1.7540826525313205	0.33423782745261077	0.4374970367301819	1.5290117262915506	0.4586450137915632	0.49421786559448855	1.2541074390244757	0.42846508050972276	0.39137433478856093	1.0461274182792546	0.2632154131381385	0.3371643373669543	0.9743627579642993	0.2616723689345418	0.3270648137791836	0.9397565005546894	0.2784495418655681	0.31400437835817074	0.9319128608561104	0.2979732902270593	0.09600998241329592	1.5054148892050248	0.47574547805541056	0.07752549310176113	1.2164515796605413	0.41415950209671076	0.27243333371486567	1.0342538438341917	0.29706294366224784	0.37307508741694223	1.0032486739208777	0.24868241544275624	0.38657225556767566	0.9541517459530466	0.25934581877643825	0.3456245595452224	0.9241545452736925	0.2985852927708363	
5	0.0833333333333333	0.43355288692414773	0.9939511014118974	0.45399717359301067	0.47591913445191314	0.5512193326953129	0.5163307977457237	0.48914162346041634	0.13340702391297327	0.6048910902482788	0.4728010091193597	0.1287888616362022	0.36825597464843485	0.5281688289738437	0.13093918902379773	0.4014513969809158	0.4740350642938565	0.05231486602651519	0.6656197696821009	0.2072299922387798	0.9449876314920642	0.47153358788598154	0.25111055428464396	0.5100792012459008	0.5075314057729758	0.3117018765120318	0.11596254639601491	0.580077118663787	0.3275314766816075	0.09481366425773752	0.3882907367846763	0.2599011255499156	0.10243948234986158	0.4257979159327883	0.3322269028175806	0.07010336174611208	0.6270698671511219	0.2435602975143032	1.6289857394272644	0.4560024727772542	0.22182438927099427	1.8859026942024755	0.3903172188706524	0.2448259602003311	1.754087053571647	0.3339266832917284	0.4374989900263212	1.5290066000601765	0.4586667988447312	0.4942144765063301	1.2544550945473656	0.42848885558210154	0.3918898733648747	1.0461450392642602	0.26347650883350915	0.3376374723550791	0.9755320732661691	0.26098504054910077	0.32786240512051007	0.939807503011537	0.2787331104356864	0.3140432797389513	0.9319497069101454	0.297968509675684	0.09599781012738934	1.5053968549191517	0.47570824778896587	0.07741789110401019	1.2167890520348015	0.41432174245742615	0.2723488956279753	1.034660732376683	0.2969119010075944	0.37337325851318015	1.003401749334422	0.24868826208289674	0.38658654576697865	0.9542771095197912	0.2592950011181499	0.34554707125771367	0.9241819836830684	0.2984974401712977	
6	0.1	0.4337435262682439	0.9943604988272005	0.45321374405047565	0.4760598272883446	0.5516570399807924	0.5162703213396862	0.4892771806061825	0.13356599303652278	0.6047042648200842	0.4727455999995487	0.12868416454040119	0.368226716359769	0.5275663191303543	0.13200871813313722	0.3998481465146795	0.4740599127382034	0.05188234711981163	0.6656579261703881	0.20725462322025054	0.9450656481632304	0.4714718701888183	0.25110270107032856	0.5103185488537282	0.5073729085132338	0.3118587678290786	0.11572580476711047	0.5808699872881762	0.3273348703534592	0.09484480365353434	0.3880794625384336	0.25990778537187703	0.10246544122608646	0.4257444498530655	0.3324439916808704	0.0698906208988477	0.6277693585351917	0.2435574938813698	1.6289930151810443	0.45598513964611703	0.2213546012913845	1.8860242890573733	0.39197535719935017	0.24477045837093106	1.7540903595758808	0.33369770172776364	0.4375033468189098	1.5290001819281518	0.45867586885695266	0.49424191602812195	1.254598848100695	0.428564736090932	0.39238015875199295	1.0461899493190148	0.2636742817953155	0.33811210109547407	0.9765331243581346	0.26073258212233996	0.32849564874997766	0.9398513447944251	0.27893924980872065	0.31409117942438763	0.9319908907554072	0.2979645005985646	0.0959840187186046	1.5053757858615793	0.4756982076635895	0.07734286655254845	1.216688694040317	0.4144613802027353	0.2722701370991557	1.0350490631025278	0.296765974400823	0.37362100443827595	1.0037224422252011	0.24837559951933702	0.3865830221180115	0.9545001082996108	0.2592868899027878	0.3453479509213117	0.9241893376464361	0.29837617768326863	
